<svg xmlns="http://www.w3.org/2000/svg" viewBox="0 0 256 256" role="img" aria-labelledby="title desc">
  <title id="title">CMW CRM Icon</title>
  <desc id="desc">Chicago Metal Works CRM app icon.</desc>
  <defs>
    <linearGradient id="bg" x1="0%" y1="0%" x2="100%" y2="100%">
      <stop offset="0%" stop-color="#f7f2e8" />
      <stop offset="55%" stop-color="#e8eef5" />
      <stop offset="100%" stop-color="#dbe5ef" />
    </linearGradient>
    <linearGradient id="ink" x1="0%" y1="0%" x2="100%" y2="100%">
      <stop offset="0%" stop-color="#274c77" />
      <stop offset="100%" stop-color="#14263d" />
    </linearGradient>
    <linearGradient id="gold" x1="0%" y1="0%" x2="100%" y2="100%">
      <stop offset="0%" stop-color="#c9a15f" />
      <stop offset="100%" stop-color="#a67a3c" />
    </linearGradient>
  </defs>
  <rect width="256" height="256" rx="56" fill="url(#bg)" />
  <rect x="24" y="24" width="208" height="208" rx="40" fill="rgba(255,255,255,0.76)" stroke="rgba(20,38,61,0.10)" />
  <rect x="42" y="42" width="172" height="38" rx="18" fill="url(#ink)" />
  <circle cx="67" cy="61" r="6" fill="#f7f2e8" />
  <circle cx="89" cy="61" r="6" fill="#d9e6f1" />
  <circle cx="111" cy="61" r="6" fill="#c9a15f" />
  <text x="128" y="145" text-anchor="middle" font-size="74" font-family="Georgia, 'Times New Roman', serif" font-weight="700" fill="#17314d" letter-spacing="-4">CMW</text>
  <rect x="56" y="162" width="144" height="34" rx="17" fill="url(#gold)" opacity="0.96" />
  <text x="128" y="184" text-anchor="middle" font-size="20" font-family="Arial, sans-serif" font-weight="700" fill="#fffdf8" letter-spacing="2">CRM</text>
  <path d="M188 162c12.15 0 22 9.85 22 22s-9.85 22-22 22-22-9.85-22-22 9.85-22 22-22Z" fill="url(#ink)" />
  <path d="m178 184 8 8 14-18" fill="none" stroke="#f7f2e8" stroke-linecap="round" stroke-linejoin="round" stroke-width="6" />
</svg>
