<svg xmlns="http://www.w3.org/2000/svg" width="1339" height="2133" viewBox="0 0 1339 2133">
<rect width="100%" height="100%" fill="#f8fafc"/>
<text x="203.2" y="42" font-family="Arial, sans-serif" font-size="24" font-weight="700" fill="#0f172a">Concepto 3D: pasamanos para 4 escalones + landing</text>
<text x="203.2" y="70" font-family="Arial, sans-serif" font-size="14" fill="#475569">Base visual para web AR y presentacion con cliente</text>
<polyline points="203.2,1930.4 298.2,1930.4 298.2,1869.9 393.2,1869.9 393.2,1809.5 488.2,1809.5 488.2,1749.0 583.2,1749.0 583.2,1688.6 997.7,1688.6" fill="none" stroke="#26323f" stroke-width="8" stroke-linecap="round" stroke-linejoin="round"/>
<polyline points="203.2,1619.5 583.2,1377.7" fill="none" stroke="#0f172a" stroke-width="10" stroke-linecap="round" stroke-linejoin="round"/>
<polyline points="583.2,1377.7 997.7,1377.7" fill="none" stroke="#0f172a" stroke-width="10" stroke-linecap="round" stroke-linejoin="round"/>
<polyline points="203.2,1757.7 583.2,1515.9" fill="none" stroke="#475569" stroke-width="6" stroke-linecap="round" stroke-linejoin="round"/>
<polyline points="583.2,1515.9 997.7,1515.9" fill="none" stroke="#475569" stroke-width="6" stroke-linecap="round" stroke-linejoin="round"/>
<polyline points="203.2,1930.4 203.2,1619.5" fill="none" stroke="#111827" stroke-width="12" stroke-linecap="round" stroke-linejoin="round"/>
<polyline points="583.2,1688.6 583.2,1377.7" fill="none" stroke="#111827" stroke-width="12" stroke-linecap="round" stroke-linejoin="round"/>
<polyline points="997.7,1688.6 997.7,1377.7" fill="none" stroke="#111827" stroke-width="12" stroke-linecap="round" stroke-linejoin="round"/>
<polyline points="279.2,1709.3 279.2,1571.1" fill="none" stroke="#334155" stroke-width="4" stroke-linecap="round" stroke-linejoin="round"/>
<polyline points="355.2,1661.0 355.2,1522.8" fill="none" stroke="#334155" stroke-width="4" stroke-linecap="round" stroke-linejoin="round"/>
<polyline points="431.2,1612.6 431.2,1474.4" fill="none" stroke="#334155" stroke-width="4" stroke-linecap="round" stroke-linejoin="round"/>
<polyline points="507.2,1564.2 507.2,1426.1" fill="none" stroke="#334155" stroke-width="4" stroke-linecap="round" stroke-linejoin="round"/>
<polyline points="666.1,1515.9 666.1,1377.7" fill="none" stroke="#334155" stroke-width="4" stroke-linecap="round" stroke-linejoin="round"/>
<polyline points="749.0,1515.9 749.0,1377.7" fill="none" stroke="#334155" stroke-width="4" stroke-linecap="round" stroke-linejoin="round"/>
<polyline points="831.9,1515.9 831.9,1377.7" fill="none" stroke="#334155" stroke-width="4" stroke-linecap="round" stroke-linejoin="round"/>
<polyline points="914.8,1515.9 914.8,1377.7" fill="none" stroke="#334155" stroke-width="4" stroke-linecap="round" stroke-linejoin="round"/>
</svg>